<svg width="117" height="122" viewBox="0 0 117 122" fill="red" xmlns="http://www.w3.org/2000/svg">
<g clip-path="url(#clip0_84_1818)">
<path d="M112.539 110.084C111.584 106.355 110.648 102.623 108.476 99.3686C107.995 98.6489 108.018 98.3783 108.779 97.8465C114.112 94.1367 116.523 89.0035 115.953 82.5105C115.915 81.7499 115.648 81.0185 115.186 80.4127C114.725 79.8068 114.091 79.3547 113.367 79.116C112.666 78.8242 111.893 78.746 111.147 78.891C110.401 79.036 109.715 79.3978 109.174 79.9312C107.874 81.103 106.591 82.2844 105.276 83.434C103.744 84.7746 101.716 84.8065 100.308 83.5454C98.8466 82.2399 98.6173 80.3165 99.7446 78.6065C100.614 77.2818 101.493 75.9571 102.419 74.6738C103.518 73.1484 103.808 71.5754 102.833 69.8972C101.859 68.219 100.286 67.7891 98.4453 67.9324C94.1239 68.2747 90.1146 70.3167 87.2965 73.6106C84.4783 76.9045 83.0813 81.1815 83.4119 85.5038C83.4755 86.2777 83.2367 86.3572 82.5967 86.2808C81.0618 86.0929 79.5237 85.9114 77.9793 85.8C74.8268 85.5771 72.7697 83.4945 72.706 80.3451C72.6678 78.4345 72.7251 76.5239 72.6837 74.6292C72.6626 74.3184 72.7167 74.0071 72.8414 73.7216C72.9662 73.4361 73.1578 73.1849 73.4002 72.9892C76.2154 70.5355 78.7565 67.7841 80.979 64.7831C83.8004 60.8822 85.4371 56.6406 85.2301 51.7271C85.0677 48.0014 85.2301 44.2629 85.1728 40.5308C85.1569 39.5564 85.4562 39.2984 86.3702 39.3717C87.3248 39.423 88.2815 39.423 89.2361 39.3717C90.8729 39.3239 91.8696 38.3973 91.8855 36.942C91.9014 35.4868 90.8633 34.4964 89.1756 34.4455C88.9784 34.4311 88.7805 34.4311 88.5833 34.4455C88.0101 34.5123 87.7172 34.3531 87.7076 33.694C87.6905 32.8995 87.6127 32.1074 87.4751 31.3248C85.7237 20.8184 80.098 13.1441 70.5979 8.3017C70.3848 8.22124 70.2022 8.07595 70.076 7.8863C69.9497 7.69664 69.8862 7.47217 69.8942 7.24448C69.6331 3.0411 66.4646 0.0382328 62.2517 0.00320457C59.1564 -0.0222705 56.058 0.00320457 52.9596 0.00320457C48.5015 0.00320457 45.4477 2.71631 44.9987 7.15852C44.9926 7.42301 44.9074 7.67961 44.7542 7.89528C44.601 8.11094 44.3867 8.2758 44.1389 8.36858C34.0062 13.7215 28.2584 22.0391 27.2426 33.5252C27.1821 34.2289 27.0101 34.5601 26.2873 34.4614C26.0098 34.4343 25.7304 34.4343 25.453 34.4614C23.9595 34.5601 22.9532 35.5855 22.9851 36.9707C23.0169 38.3018 24.0104 39.2985 25.4434 39.3653C26.4348 39.4306 27.4294 39.4306 28.4208 39.3653C29.3761 39.2794 29.6945 39.5373 29.6786 40.5658C29.6117 44.4571 29.7296 48.3517 29.6309 52.2398C29.5226 56.319 30.7422 59.9555 32.9203 63.3342C35.2831 67.0057 38.286 70.1042 41.4959 73.0242C41.8621 73.3427 42.2792 73.6261 42.2665 74.2662C42.2187 76.4092 42.3142 78.5555 42.2187 80.6954C42.1667 81.9584 41.6674 83.1617 40.8098 84.0904C39.9523 85.0191 38.7925 85.6126 37.5377 85.765C33.7514 86.1757 29.9652 86.5897 26.1726 86.94C15.5559 87.9271 6.33074 95.6174 3.44569 105.986C2.35026 109.912 1.42998 113.889 0.261308 117.797C-0.276852 119.599 -0.05713 120.949 1.53506 122H2.9553C4.22905 121.519 4.74492 120.522 5.07928 119.274C6.318 114.647 7.18097 109.903 8.92602 105.438C11.6232 98.5471 16.7182 94.2386 23.8926 92.3534C24.7142 92.1401 25.0103 92.2006 24.988 93.1495C24.9275 95.5314 24.9498 97.9261 24.988 100.295C24.988 100.932 24.867 101.251 24.2015 101.505C20.5012 102.83 18.0142 105.4 16.6832 109.084C15.6323 111.985 14.6133 114.899 13.5752 117.806C12.7982 119.978 13.0339 120.742 14.8904 122H16.0813C17.25 121.589 17.8455 120.726 18.2308 119.57C19.2307 116.612 20.2879 113.676 21.3515 110.74C22.466 107.661 24.9562 105.776 28.1756 105.766C41.4991 105.728 54.8257 105.747 68.1491 105.747C68.3064 105.766 68.4619 105.798 68.6141 105.842C67.6874 107.04 66.7894 108.161 66.299 109.549C65.8749 110.725 65.6925 111.974 65.7627 113.221C65.833 114.469 66.1544 115.69 66.7078 116.81C67.2612 117.93 68.0351 118.928 68.9832 119.742C69.9312 120.556 71.0339 121.17 72.2252 121.548C72.5754 121.659 73.0244 121.586 73.2537 121.997H76.1196C79.6416 121.417 81.8993 119.08 84.0328 116.472C86.2619 113.743 88.6565 111.148 90.9302 108.45C91.4779 107.814 91.7868 107.855 92.2422 108.482C92.7804 109.217 93.2094 110.026 93.5159 110.883C94.5349 113.749 95.5985 116.615 96.5665 119.481C96.9359 120.583 97.4677 121.471 98.5217 121.997H99.7127C101.639 121.073 102.053 120.058 101.324 118.007C100.308 115.141 99.2733 112.275 98.267 109.409C97.6826 107.594 96.6902 105.937 95.366 104.566C94.882 104.088 94.9871 103.84 95.3406 103.324C96.6971 101.349 98.3179 100.477 100.891 100.407C102.948 100.353 103.715 101.098 104.578 102.569C106.368 105.629 107.024 109.059 107.957 112.399C108.572 114.606 109.183 116.819 109.699 119.051C109.986 120.303 110.508 121.325 111.625 121.994H113.055C114.848 120.959 115.176 120.163 114.647 118.118C113.931 115.443 113.221 112.762 112.539 110.084ZM32.2325 33.4392C33.0413 25.3604 36.8403 19.0777 43.5116 14.4985C43.9701 14.1801 44.4446 13.8998 44.9222 13.6164C45.2407 13.4381 45.5591 13.298 45.9986 13.0528L48.7085 25.2267C48.7785 25.5451 48.8454 25.8636 48.9314 26.1502C49.3422 27.5799 50.5777 28.3792 51.8865 28.0863C52.21 28.0221 52.5169 27.8922 52.7882 27.7046C53.0595 27.5171 53.2894 27.2758 53.4637 26.9958C53.638 26.7159 53.753 26.4031 53.8016 26.0769C53.8502 25.7507 53.8313 25.4179 53.7462 25.0993C52.9469 21.2621 52.068 17.4409 51.221 13.6132C50.8293 11.8364 50.4153 10.0627 50.0396 8.27941C49.6542 6.43565 50.7497 5.02179 52.6285 5.00269C55.8404 4.96872 59.0545 4.96872 62.2708 5.00269C64.0604 5.02498 65.1749 6.48343 64.7928 8.23165C63.6082 13.6897 62.4151 19.1445 61.2136 24.5962C60.8346 26.3221 61.3696 27.5354 62.7261 28.0194C64.2546 28.5607 65.6589 27.6245 66.0761 25.7649C66.9486 21.8608 67.853 17.9663 68.6554 14.0463C68.8561 13.0655 69.1172 13.1324 69.8337 13.5559C77.5048 18.1 81.7592 24.8095 82.724 33.6557C82.8546 34.834 82.0872 34.4964 81.5458 34.4964C66.4603 34.4964 51.377 34.4964 36.2958 34.4964C35.264 34.4964 34.2291 34.4391 33.2005 34.5155C32.3121 34.5824 32.1529 34.248 32.2325 33.4328V33.4392ZM38.8528 63.0953C36.9422 60.6847 35.3245 58.1213 34.78 55.0166C34.573 53.8288 34.6622 52.641 34.659 51.4532C34.659 47.8008 34.6845 44.1515 34.6303 40.499C34.6303 39.6073 34.8405 39.3813 35.7385 39.3876C42.9607 39.4258 50.1829 39.4099 57.3923 39.4099C64.6017 39.4099 71.8398 39.4099 79.0461 39.3908C79.8963 39.3908 80.1988 39.5405 80.1861 40.4767C80.1288 44.6451 80.1129 48.8102 80.1861 52.9786C80.2434 56.9686 78.3296 60.1148 76.0018 63.0762C72.5913 67.4134 68.3052 70.8366 64.175 74.4349C62.5828 75.8361 60.9047 76.5717 58.7871 76.3456C58.0763 76.2597 57.3579 76.2597 56.6471 76.3456C54.0551 76.6831 52.0393 75.7533 50.0969 74.0241C46.2056 70.5181 42.1232 67.2255 38.8528 63.089V63.0953ZM47.2214 78.2657C47.387 78.2657 47.4889 78.2339 47.5398 78.2657C49.9727 80.7145 52.9246 81.5966 56.3255 81.31C57.7426 81.1922 59.1915 81.2813 60.6085 81.2909C62.6101 81.3125 64.5528 80.6141 66.0825 79.323L67.6747 78.0269C68.0218 84.6026 68.6873 86.1821 72.2092 89.0289C66.0984 94.9423 50.5936 94.9901 42.6805 89.0544C46.4221 86.4018 47.5844 82.6315 47.2182 78.2594L47.2214 78.2657ZM31.2581 100.808C30.2486 100.808 29.8888 100.63 29.9366 99.5342C30.0321 97.1587 29.9875 94.7735 29.9366 92.3948C29.9366 91.7579 30.1022 91.4172 30.7868 91.4873C30.8258 91.4936 30.8656 91.4936 30.9046 91.4873C34.2641 90.637 37.1014 91.3727 40.0693 93.3693C45.5552 97.1128 52.1159 98.9571 58.7488 98.6203C65.6016 98.3019 71.6551 95.7066 77.2533 91.9013C78.8932 90.7867 79.0079 90.7676 81.3134 91.2898C78.9537 94.0189 76.6164 96.6046 74.4287 99.3113C73.5148 100.435 72.5722 100.824 71.1265 100.818C57.8392 100.752 44.5497 100.746 31.2581 100.802V100.808ZM97.8116 95.4964C97.235 95.3655 96.6329 95.4034 96.0773 95.6056C95.5216 95.8077 95.0359 96.1656 94.6782 96.6364C89.2584 102.916 83.829 109.185 78.3901 115.443C77.2214 116.794 75.7725 117.418 74.0402 116.895C73.2078 116.676 72.4566 116.221 71.8774 115.584C71.2982 114.947 70.9157 114.156 70.7762 113.307C70.5024 111.899 71.0947 110.759 71.9863 109.731C76.869 104.094 81.7517 98.4536 86.6345 92.8088C86.7395 92.691 86.8319 92.5604 86.9529 92.4521C88.7362 90.8377 89.2679 89.1372 88.6311 86.5706C87.144 80.5553 91.2232 74.4222 97.006 73.3013C97.0442 73.3395 97.0824 73.3809 97.1238 73.4159C96.7894 74.3712 96.1016 75.0941 95.5698 75.9188C93.1401 79.6764 93.6974 84.3129 96.9582 87.2616C100.159 90.1562 104.973 90.2104 108.387 87.3699C109.202 86.6916 109.979 85.956 110.915 85.1058C110.996 85.6809 110.956 86.2666 110.798 86.8253C109.352 92.7897 103.9 96.4772 97.7957 95.4901L97.8116 95.4964Z" fill="white"/>
</g>
<defs>
<clipPath id="clip0_84_1818">
<rect width="116.036" height="122" fill="red"/>
</clipPath>
</defs>
</svg>
