<svg width="116" height="121" viewBox="0 0 116 121" fill="none" xmlns="http://www.w3.org/2000/svg">
<path d="M109.984 43.3521C106.854 40.2021 103.696 37.0725 100.562 33.9307C99.4643 32.8247 99.7428 31.8826 101.25 31.4443C104.613 30.4366 107.976 29.3961 111.348 28.4294C112.474 28.1017 113.347 27.5528 113.355 26.2707C113.363 24.9886 112.511 24.4233 111.372 24.0956C108.05 23.1289 104.753 22.0474 101.41 21.1667C100.386 20.8923 100.05 20.3885 99.8453 19.434C99.2063 16.5011 98.4402 13.5928 97.7684 10.6639C97.494 9.43506 96.9779 8.51339 95.6056 8.5011C94.2334 8.48881 93.6967 9.40228 93.4182 10.623C92.7505 13.5559 91.9476 16.456 91.37 19.4012C91.1406 20.5687 90.5508 20.9455 89.539 21.2814C88.5272 21.6173 87.9005 21.2814 87.1755 20.5564C82.1084 15.4361 76.9923 10.3731 71.9088 5.26915C68.6318 1.99214 64.7198 0.152928 58.5181 0.132446C55.241 0.132446 51.2554 2.00854 47.8883 5.39206C38.5242 14.7998 29.1383 24.1911 19.7306 33.5661C16.0808 37.2159 12.3573 40.7878 8.8427 44.5605C5.32811 48.3331 4.10338 52.7776 4.79974 57.8365C5.36912 61.9778 7.43361 65.2712 10.3993 68.0771C10.8089 68.4581 11.4479 68.712 11.1898 69.5559C9.46942 75.1882 8.38391 81.0254 5.35268 86.2236C3.83297 88.8206 2.37069 91.4422 0.732186 93.9655C-0.320553 95.604 -0.263277 96.2553 1.06801 97.5825C8.50409 105.029 15.9429 112.468 23.3844 119.899C24.7239 121.238 25.4326 121.341 27.0056 120.288C33.834 115.741 40.9902 111.686 47.323 106.394C47.9047 105.91 48.2324 105.902 48.8427 106.394C56.216 112.632 65.2277 112.276 72.0439 105.476C84.6986 92.8486 97.3397 80.2102 109.967 67.561C117.123 60.413 117.123 50.5287 109.984 43.3521ZM91.706 24.9844C93.8852 24.6076 94.983 23.3705 95.2288 21.2364C95.2084 21.0325 95.2393 20.8268 95.3187 20.6379C95.3981 20.4491 95.5235 20.283 95.6834 20.155C95.8913 20.8285 96.0649 21.512 96.2036 22.2031C96.4085 23.5917 97.2114 24.3372 98.5345 24.6854C100.173 25.0951 101.75 25.6112 103.356 26.0782L103.393 26.3977C102.053 26.8073 100.73 27.2866 99.3659 27.5569C97.3629 27.9665 96.1995 29.007 95.9988 31.0756C95.9352 31.4644 95.8421 31.8478 95.7203 32.2226C95.5647 32.1693 95.4172 32.1447 95.4131 32.1161C95.3025 29.0357 93.4674 27.6757 90.641 27.2005C89.6393 27.0224 88.6853 26.6388 87.8391 26.0741C89.1062 25.6374 90.3973 25.2735 91.706 24.9844ZM28.7506 114.181C27.7019 114.799 26.6082 116.02 25.6456 115.921C24.6829 115.823 23.835 114.43 22.9748 113.57C17.1909 107.797 11.4111 102.021 5.6354 96.243C5.16842 95.7801 4.66451 95.4483 5.25027 94.6045C10.6655 86.9855 13.2749 78.2195 15.6138 69.3183C17.6333 61.6378 19.8862 54.0188 22.0449 46.3792C22.6102 44.3803 24.1873 43.262 25.9815 43.5119C27.7757 43.7617 29.1315 45.2773 29.111 47.4566C28.4965 50.1273 27.8043 53.1544 27.1039 56.1816C26.4539 59.008 25.7958 61.8358 25.1294 64.6649C24.8427 65.8938 24.7731 67.0448 26.0962 67.7125C27.3251 68.3393 28.2099 67.6593 29.0537 66.8155C38.6881 57.1674 48.3266 47.5221 57.9692 37.8795C58.9523 36.8923 59.9804 36.1508 61.4755 36.5523C61.9625 36.6656 62.4135 36.8986 62.7877 37.2302C63.1619 37.5617 63.4476 37.9813 63.6188 38.451C63.79 38.9207 63.8414 39.4257 63.7683 39.9203C63.6952 40.4148 63.4999 40.8834 63.2001 41.2835C62.8837 41.6834 62.5358 42.0573 62.1597 42.4018C55.3326 49.2289 48.5055 56.056 41.6784 62.8831C41.3417 63.1951 41.023 63.5261 40.7239 63.8743C39.9374 64.8615 39.9457 65.8774 40.8591 66.7417C41.7726 67.606 42.6943 67.5405 43.6282 66.8114C43.9778 66.5138 44.3101 66.1965 44.6236 65.861L71.0567 39.4279C71.4389 39.0146 71.8496 38.6286 72.2856 38.2727C72.8692 37.8022 73.6088 37.5692 74.3568 37.62C75.1047 37.6709 75.8059 38.002 76.3204 38.5472C76.8529 39.0716 77.1721 39.7749 77.2159 40.5209C77.2598 41.267 77.0254 42.0029 76.558 42.5861C76.2356 42.9809 75.8866 43.3531 75.5134 43.7003C66.6273 52.5837 57.7439 61.4685 48.8632 70.3546C48.4495 70.7306 48.0847 71.1573 47.7777 71.6245C47.2329 72.5461 47.4705 73.4104 48.2242 74.1068C48.5261 74.4295 48.9342 74.6324 49.3737 74.6783C49.8131 74.7242 50.2543 74.61 50.6164 74.3567C51.073 74.0344 51.4945 73.6651 51.8739 73.2548C58.2696 66.8646 64.6638 60.4745 71.0567 54.0843C71.4729 53.6354 71.9281 53.2241 72.4167 52.8554C73.0265 52.4203 73.7758 52.2264 74.5201 52.3111C75.2644 52.3959 75.951 52.7532 76.4474 53.3142C76.9307 53.8468 77.2181 54.5282 77.262 55.2461C77.306 55.964 77.1039 56.6754 76.6891 57.263C76.3422 57.7004 75.9629 58.1112 75.5544 58.4919C68.8038 65.2507 62.0518 72.0054 55.2984 78.756C54.9178 79.0969 54.5669 79.4697 54.2498 79.8703C53.9361 80.2512 53.7775 80.7364 53.8056 81.2291C53.8336 81.7218 54.0463 82.1859 54.4013 82.5287C54.7144 82.9119 55.164 83.1584 55.6554 83.2165C56.1467 83.2746 56.6415 83.1396 57.0353 82.84C57.4468 82.536 57.8269 82.1915 58.1699 81.8119C63.0117 76.9783 67.8507 72.1406 72.687 67.2988C73.1423 66.7474 73.7165 66.3063 74.3666 66.0085C74.9591 65.7523 75.6207 65.7034 76.2444 65.8699C76.8681 66.0365 77.4173 66.4086 77.8033 66.9261C78.2144 67.3918 78.4573 67.9821 78.4929 68.6023C78.5286 69.2225 78.355 69.8367 77.9999 70.3464C77.6459 70.8507 77.2334 71.3114 76.771 71.7187C70.5283 77.9696 64.1382 84.0812 58.0675 90.4959C49.4442 99.7158 39.5768 107.688 28.7506 114.181ZM107.984 63.5876C106.829 64.882 105.56 66.074 104.335 67.3029C92.5239 79.1111 80.713 90.9178 68.9021 102.723C64.2201 107.397 57.4695 107.917 52.5171 104.104C51.5708 103.375 51.3373 103.01 52.3573 102.006C61.8114 92.6806 71.2179 83.3084 80.5765 73.8897C84.2631 70.1662 83.157 65.0541 78.0613 62.0106C80.1913 60.1058 81.7807 57.9143 81.4817 54.8953C81.1827 51.8764 79.536 49.8242 76.4556 48.4683C77.5124 47.5057 78.5037 46.7192 79.3517 45.8139C82.1658 42.8401 82.1371 38.4407 79.3517 35.6224C78.0004 34.274 76.1747 33.5085 74.2658 33.4901C72.3568 33.4718 70.5167 34.2019 69.1397 35.5241C68.6323 36.0621 68.1589 36.6312 67.7223 37.2282C64.8304 31.5999 59.28 30.7192 55.069 34.922C47.48 42.5001 39.8992 50.0863 32.3266 57.6808C31.9685 58.1113 31.6542 58.5765 31.3885 59.0694L30.8847 58.6967C31.6343 55.4197 32.3757 52.1058 33.1376 48.8124C33.8381 45.7771 32.9205 43.2415 30.6553 41.2343C28.3901 39.2272 25.7152 38.8421 22.9175 39.8047C20.3983 40.6731 18.7925 42.496 18.0716 45.1053C16.3184 51.4258 14.5325 57.7382 12.6891 64.2922C10.514 62.3618 9.15976 59.6725 8.90421 56.7755C8.49458 52.8267 9.7808 49.4514 12.5908 46.6455C25.4531 33.7914 38.3126 20.9373 51.1694 8.08328C56.175 3.09813 63.4581 2.94657 68.4597 7.78426C73.4612 12.6219 78.2334 17.5129 83.1079 22.3874C83.268 22.5791 83.4184 22.7787 83.5585 22.9855L79.6957 24.1324C78.6225 24.452 77.8606 25.05 77.8647 26.2666C77.8688 27.4832 78.6512 28.073 79.7162 28.3884C83.0874 29.3838 86.4463 30.412 89.8339 31.346C90.2267 31.4129 90.5873 31.605 90.8619 31.8937C91.1365 32.1823 91.3105 32.552 91.3578 32.9476C92.0091 35.9338 92.7833 38.8913 93.4551 41.8733C93.7295 43.1022 94.2743 44.0157 95.6302 44.0157C96.9861 44.0157 97.5432 43.0817 97.8053 41.8651C98.0675 40.6486 98.3992 39.4361 98.6696 38.3587C101.947 41.5497 105.428 44.5031 108.427 47.9071C112.314 52.327 111.982 59.1104 107.984 63.5876Z" fill="#5C5C5C"/>
</svg>
